<svg width="193" height="60" viewBox="0 0 193 60" fill="none" xmlns="http://www.w3.org/2000/svg">
<path d="M86.7593 16.4539C86.8692 17.1851 87.0928 17.8191 87.4946 18.1444C88.5369 18.9963 91.0459 18.3087 92.2133 17.8794C92.8008 18.3859 93.1457 19.2311 93.2632 19.9254C90.6025 21.6293 82.7872 22.8837 82.7872 15.4175C82.7872 12.1775 84.3071 9.49419 88.3815 9.49419C92.8766 9.49419 94.3396 13.0294 93.2518 16.4573H86.7593V16.4539ZM144.676 16.4539C144.786 17.1851 145.01 17.8191 145.412 18.1444C146.454 18.9963 148.963 18.3087 150.13 17.8794C150.718 18.3859 151.063 19.2311 151.18 19.9254C148.519 21.6293 140.704 22.8837 140.704 15.4175C140.704 12.1775 142.224 9.49419 146.298 9.49419C150.794 9.49419 152.256 13.0294 151.169 16.4573H144.676V16.4539ZM186.557 18.3322C186.792 18.9594 187.012 20.1032 186.769 20.7405C183.571 21.1799 180.974 21.371 180.974 17.8895V4.57708C181.456 4.57708 181.937 4.57708 182.418 4.57708C183.893 4.57708 184.783 4.80516 184.783 6.66333V17.2824C184.783 18.4496 185.697 18.3322 186.557 18.3322ZM188.608 5.42567C188.255 5.7812 188.251 7.64273 188.608 8.00161C189.032 8.42758 191.928 8.43094 192.352 8.00161C192.709 7.64273 192.705 5.78456 192.352 5.42567C191.932 4.9997 189.028 4.9997 188.608 5.42567ZM160.458 4.57708C160.875 4.57708 161.296 4.57708 161.713 4.57708C163.301 4.57373 164.267 4.72802 164.267 6.66333V17.6581C164.267 18.2316 164.476 18.9293 164.965 19.2613L163.778 21.0289C163.248 21.1866 161.773 20.7371 161.099 19.798C158.616 22.1693 153.155 22.0419 153.155 15.4678C153.155 10.5272 157.157 8.52821 160.458 10.0644V4.57373V4.57708ZM139.791 10.8828C139.791 14.2536 137.316 16.1219 133.674 16.1219H131.714V20.8512H127.704V5.63027L133.674 5.62356C137.395 5.62356 139.791 7.43813 139.791 10.8828ZM147.909 14.0759C147.909 11.235 145.484 11.7247 144.995 12.6068C144.862 12.8449 144.733 13.4017 144.657 14.0759H147.909ZM131.714 13.4856C134.034 13.4688 135.709 13.4789 135.709 10.8794C135.709 8.01838 133.59 8.35715 131.714 8.3169V13.4856ZM193 20.8478H189.093V13.5325C189.093 12.3318 188.452 12.2513 187.543 12.2513V9.84301C190.074 9.60152 193 9.36338 193 12.3754V20.8512V20.8478ZM81.8738 10.8794C81.8738 14.2503 79.3989 16.1185 75.7566 16.1185H73.7971V20.8478H69.7871V5.62021H75.7566C79.4785 5.62021 81.8738 7.43477 81.8738 10.8794ZM73.7933 13.4856C76.1128 13.4688 77.7881 13.4789 77.7881 10.8794C77.7881 8.01838 75.6694 8.35715 73.7933 8.3169V13.4856ZM89.9885 14.0759C89.9885 11.235 87.5628 11.7247 87.0739 12.6068C86.9412 12.8449 86.8124 13.4017 86.7366 14.0759H89.9885ZM99.7405 20.8512H95.92V4.57708C96.6098 4.57708 97.1215 4.57708 97.618 4.57708C99.2326 4.57708 99.7405 5.22442 99.7405 6.66333V13.6063C100.931 13.5929 100.639 13.5996 102.14 10.9935C102.989 9.51431 105.145 9.55791 106.771 9.77928C105.82 11.1444 104.952 13.6533 103.421 14.5387C106.369 15.4779 105.501 18.8119 107.309 19.9489C106.32 20.9451 104.33 21.4281 103.436 20.6834C101.636 19.1842 103.095 16.2527 99.7443 16.4573V20.8545L99.7405 20.8512ZM108.246 17.8358C108.246 14.2805 111.865 13.8579 114.977 14.0256C114.977 11.2819 112.46 12.2043 109.655 12.9288C109.079 12.3385 108.795 11.3054 108.719 10.5306C111.854 9.37008 118.873 8.2733 118.873 13.3279C118.873 15.384 118.426 18.5268 119.57 19.2613L118.384 21.0289C117.831 21.1933 116.372 20.6767 115.693 19.8583C112.638 22.4075 108.246 21.1161 108.246 17.8358ZM114.977 16.2191C113.544 16.1823 112.043 15.9777 112.043 17.6044C112.043 18.7984 113.612 18.9796 114.977 17.98V16.2191ZM160.455 17.5541V12.6839C156.168 10.3461 156.861 17.2053 157.877 18.1041C158.635 18.7716 159.829 18.2182 160.455 17.5541ZM177.961 17.705C177.961 18.2685 178.166 18.9796 178.662 19.2949C178.53 19.912 177.764 20.9451 177.476 21.0289C176.396 21.1799 175.103 20.4453 174.531 19.4558C173.015 20.6566 170.764 21.797 168.819 20.5459C165.685 18.5268 168.391 12.6001 166.614 10.3864C167.629 9.64177 171.135 8.63218 171.135 11.7783C171.135 12.8617 170.957 16.9436 171.37 17.5843C171.851 18.3322 173.318 17.809 174.072 17.1985V9.82289H177.969V17.7017L177.961 17.705Z" fill="white"/>
<path d="M140.954 36.5751C141.064 37.3063 141.288 37.9402 141.689 38.2656C142.732 39.1175 145.241 38.4299 146.408 38.0006C146.996 38.5071 147.341 39.3523 147.458 40.0466C144.797 41.7505 136.982 43.0049 136.982 35.5387C136.982 32.2986 138.502 29.6153 142.576 29.6153C147.071 29.6153 148.534 33.1506 147.447 36.5784H140.954V36.5751ZM102.302 37.4036C102.302 38.5708 103.216 38.4534 104.076 38.4534C104.311 39.0806 104.531 40.2243 104.289 40.8616C101.09 41.301 98.4934 41.4922 98.4934 38.0106V27.841V24.6982C99.1794 24.6982 99.6873 24.6982 100.188 24.6982C101.795 24.6982 102.302 25.3422 102.302 26.7778C102.302 30.313 102.299 33.8616 102.302 37.4036ZM144.183 34.2004C144.183 31.3595 141.758 31.8492 141.269 32.7313C141.136 32.9694 141.007 33.5262 140.931 34.2004H144.183ZM161.394 25.5468C161.042 25.9024 161.038 27.7639 161.394 28.1228C161.819 28.5487 164.715 28.5521 165.139 28.1228C165.495 27.7639 165.492 25.9057 165.139 25.5468C164.718 25.1209 161.815 25.1209 161.394 25.5468ZM165.787 40.9723H161.88V33.657C161.88 32.4563 161.239 32.3758 160.329 32.3758V29.9675C162.861 29.726 165.787 29.4879 165.787 32.4999V40.9757V40.9723ZM69.7832 39.6575C69.8817 38.6815 70.5299 37.635 71.3334 37.0178C78.1708 40.6168 80.2326 36.5919 76.8518 35.3475C73.7666 34.2138 70.2721 33.4357 70.2721 30.1654C70.2721 25.3624 77.1474 24.4635 82.211 26.818C82.1466 27.8041 81.6766 28.8003 80.8617 29.4577C74.4223 26.7577 72.7888 29.9608 75.8285 31.0811C78.7317 32.1544 82.6734 33.0265 82.6734 36.5617C82.6734 41.9584 74.5284 42.3777 69.787 39.6575H69.7832ZM95.4841 37.8228C95.4841 38.3863 95.6887 39.0974 96.1852 39.4127C96.0526 40.0298 95.287 41.0629 94.9989 41.1467C93.9187 41.2977 92.6263 40.5631 92.054 39.5737C90.5379 40.7744 88.2866 41.9148 86.3423 40.6637C83.2078 38.6446 85.914 32.7179 84.1364 30.5042C85.1522 29.7596 88.658 28.75 88.658 31.8961C88.658 32.9795 88.4799 37.0614 88.893 37.7021C89.3744 38.45 90.8411 37.9268 91.5954 37.3164V29.9407H95.4916V37.8195L95.4841 37.8228ZM105.672 37.957C105.672 34.4016 109.291 33.979 112.403 34.1467C112.403 31.4031 109.887 32.3255 107.082 33.0499C106.506 32.4596 106.221 31.4266 106.146 30.6518C109.28 29.4912 116.299 28.3945 116.299 33.4491C116.299 35.5051 115.852 38.6479 116.997 39.3825L115.811 41.1501C115.257 41.3144 113.798 40.7979 113.12 39.9795C110.065 42.5286 105.672 41.2373 105.672 37.957ZM112.403 36.3403C110.971 36.3034 109.47 36.0988 109.47 37.7256C109.47 38.9196 111.039 39.1007 112.403 38.1012V36.3403ZM117.66 30.1554C119.369 29.5483 121.268 29.3034 121.693 31.2153L123.118 38.2421C123.144 38.3595 123.209 38.4198 123.319 38.4198L124.691 30.0648C125.767 29.8401 128.204 29.8267 129.25 30.0648L130.66 38.2421C130.694 38.3595 130.759 38.4198 130.861 38.4198L132.658 29.9541C133.256 29.8099 136.247 29.6153 136.33 30.3063L133.419 40.969C132.324 41.1132 129.732 41.2507 128.849 40.818C127.84 40.3216 127.257 34.4553 127.037 32.9896H126.885L125.536 40.969C124.395 41.0931 121.829 41.2842 120.912 40.7845C120.525 40.5732 120.245 40.1439 120.078 39.4865L117.656 30.1486L117.66 30.1554ZM149.114 40.2109C149.148 39.4797 149.63 38.4232 150.202 37.8899C154.936 40.0466 156.426 37.7926 153.985 37.0279C151.885 36.3705 149.478 35.7064 149.478 33.2713C149.478 29.0451 155.444 29.0317 158.904 30.5411C158.954 31.2957 158.525 32.473 157.832 32.9393C152.95 30.9905 152.45 33.0902 154.273 33.657C156.558 34.3715 159.143 35.0255 159.143 37.7021C159.143 41.6163 153.007 42.1496 149.114 40.2109Z" fill="#E50C29"/>
<path fill-rule="evenodd" clip-rule="evenodd" d="M28.9239 0.184898C25.0692 2.32855 19.5975 6.87509 16.467 12.1443C10.9467 21.4383 22.2952 26.2263 25.6881 21.0073C26.158 28.6292 16.2532 29.0699 8.87597 25.7142C-3.91301 19.9006 6.51844 -2.23096 28.9239 0.183277V0.184898ZM20.2796 30.1539C26.9098 28.8171 32.3816 32.9926 37.2943 34.9596C44.7752 38.4822 51.6857 29.4571 46.7066 23.1299C41.1636 15.7397 28.2887 9.86615 21.4365 19.0127C19.0368 12.3355 30.4275 1.9575 34.428 1.33207C56.4219 6.88157 62.3554 23.8525 59.0791 33.0882C53.9266 47.6109 38.7023 48.9509 27.9193 40.9482C25.8388 39.4041 24.2461 38.0204 22.8348 39.5305C17.7762 44.6911 17.517 52.5123 17.3517 59.9187C7.14225 59.8133 0.536317 52.6192 0 48.6398C4.18522 41.0633 11.4214 31.9394 20.278 30.1539H20.2796Z" fill="#E50C29"/>
</svg>
