<svg width="256" height="256" viewBox="0 0 256 256" fill="none" xmlns="http://www.w3.org/2000/svg">
<rect width="256" height="256" rx="70" fill="#E50C29"/>
<path fill-rule="evenodd" clip-rule="evenodd" d="M124.754 48.4863C114.522 54.1752 100.006 66.2347 91.7014 80.2219C77.05 104.888 107.164 117.588 116.167 103.742C117.413 123.97 91.1313 125.134 71.555 116.236C37.6212 100.809 65.296 42.0804 124.754 48.4863ZM101.816 128.013C119.406 124.464 133.928 135.548 146.963 140.767C166.815 150.117 185.152 126.168 171.94 109.378C157.23 89.7661 123.067 74.1804 104.883 98.4523C98.5128 80.7332 128.744 53.1937 139.358 51.5305C197.717 66.2582 213.467 111.288 204.775 135.8C191.105 174.336 150.701 177.897 122.091 156.658C116.567 152.562 112.347 148.888 108.598 152.897C95.1747 166.59 94.4871 187.347 94.0463 207C66.9533 206.718 49.4222 187.629 48 177.069C59.1075 156.963 78.3077 132.75 101.81 128.013H101.816Z" fill="white"/>
</svg>
